<svg width="1440" height="2346" viewBox="0 0 1440 2346" fill="none" xmlns="http://www.w3.org/2000/svg">
<g filter="url(#filter0_i_1891_5703)">
<circle cx="160.626" cy="1501.63" r="45.1107" transform="rotate(-21.7741 160.626 1501.63)" fill="url(#paint0_linear_1891_5703)"/>
</g>
<g filter="url(#filter1_i_1891_5703)">
<circle cx="46.638" cy="649.634" r="65.1656" transform="rotate(25.0615 46.638 649.634)" fill="url(#paint1_linear_1891_5703)"/>
</g>
<g filter="url(#filter2_i_1891_5703)">
<path d="M1116.27 330.278C1074.11 206.345 1134.11 174.288 1134.11 174.288C1134.11 174.288 1240.11 -10.8729 1329.08 25.759C1418.05 62.3908 1268.35 136.019 1301.88 245.884C1335.4 355.75 1454.73 224.035 1502.93 308.209C1551.14 392.384 1480.79 502.965 1526.01 581.932C1571.23 660.9 1658.23 579.389 1681.34 619.741C1704.45 660.093 1687.22 739.678 1630.87 765.033C1574.52 790.389 1424.58 808.266 1360.37 718.278C1296.16 628.289 1380.85 545.79 1350.39 466.435C1319.93 387.079 1158.44 454.212 1116.27 330.278Z" fill="white"/>
<path d="M1116.27 330.278C1074.11 206.345 1134.11 174.288 1134.11 174.288C1134.11 174.288 1240.11 -10.8729 1329.08 25.759C1418.05 62.3908 1268.35 136.019 1301.88 245.884C1335.4 355.75 1454.73 224.035 1502.93 308.209C1551.14 392.384 1480.79 502.965 1526.01 581.932C1571.23 660.9 1658.23 579.389 1681.34 619.741C1704.45 660.093 1687.22 739.678 1630.87 765.033C1574.52 790.389 1424.58 808.266 1360.37 718.278C1296.16 628.289 1380.85 545.79 1350.39 466.435C1319.93 387.079 1158.44 454.212 1116.27 330.278Z" fill="url(#paint2_linear_1891_5703)"/>
<path d="M1116.27 330.278C1074.11 206.345 1134.11 174.288 1134.11 174.288C1134.11 174.288 1240.11 -10.8729 1329.08 25.759C1418.05 62.3908 1268.35 136.019 1301.88 245.884C1335.4 355.75 1454.73 224.035 1502.93 308.209C1551.14 392.384 1480.79 502.965 1526.01 581.932C1571.23 660.9 1658.23 579.389 1681.34 619.741C1704.45 660.093 1687.22 739.678 1630.87 765.033C1574.52 790.389 1424.58 808.266 1360.37 718.278C1296.16 628.289 1380.85 545.79 1350.39 466.435C1319.93 387.079 1158.44 454.212 1116.27 330.278Z" fill="url(#paint3_radial_1891_5703)" fill-opacity="0.5"/>
<path d="M1116.27 330.278C1074.11 206.345 1134.11 174.288 1134.11 174.288C1134.11 174.288 1240.11 -10.8729 1329.08 25.759C1418.05 62.3908 1268.35 136.019 1301.88 245.884C1335.4 355.75 1454.73 224.035 1502.93 308.209C1551.14 392.384 1480.79 502.965 1526.01 581.932C1571.23 660.9 1658.23 579.389 1681.34 619.741C1704.45 660.093 1687.22 739.678 1630.87 765.033C1574.52 790.389 1424.58 808.266 1360.37 718.278C1296.16 628.289 1380.85 545.79 1350.39 466.435C1319.93 387.079 1158.44 454.212 1116.27 330.278Z" fill="url(#paint4_radial_1891_5703)"/>
<path d="M1116.27 330.278C1074.11 206.345 1134.11 174.288 1134.11 174.288C1134.11 174.288 1240.11 -10.8729 1329.08 25.759C1418.05 62.3908 1268.35 136.019 1301.88 245.884C1335.4 355.75 1454.73 224.035 1502.93 308.209C1551.14 392.384 1480.79 502.965 1526.01 581.932C1571.23 660.9 1658.23 579.389 1681.34 619.741C1704.45 660.093 1687.22 739.678 1630.87 765.033C1574.52 790.389 1424.58 808.266 1360.37 718.278C1296.16 628.289 1380.85 545.79 1350.39 466.435C1319.93 387.079 1158.44 454.212 1116.27 330.278Z" fill="url(#paint5_radial_1891_5703)" fill-opacity="0.5"/>
</g>
<g filter="url(#filter3_i_1891_5703)">
<path d="M1098.32 361.304C1056.16 237.37 1116.16 205.313 1116.16 205.313C1116.16 205.313 1222.16 20.1525 1311.13 56.7843C1400.09 93.4162 1250.39 167.044 1283.92 276.91C1317.45 386.775 1436.77 255.06 1484.98 339.234C1533.18 423.409 1462.83 533.99 1508.06 612.958C1553.28 691.925 1640.28 610.415 1663.38 650.767C1686.49 691.118 1669.26 770.703 1612.91 796.059C1556.57 821.414 1406.62 839.292 1342.41 749.303C1278.2 659.315 1362.9 576.816 1332.44 497.46C1301.98 418.104 1140.48 485.237 1098.32 361.304Z" fill="white"/>
<path d="M1098.32 361.304C1056.16 237.37 1116.16 205.313 1116.16 205.313C1116.16 205.313 1222.16 20.1525 1311.13 56.7843C1400.09 93.4162 1250.39 167.044 1283.92 276.91C1317.45 386.775 1436.77 255.06 1484.98 339.234C1533.18 423.409 1462.83 533.99 1508.06 612.958C1553.28 691.925 1640.28 610.415 1663.38 650.767C1686.49 691.118 1669.26 770.703 1612.91 796.059C1556.57 821.414 1406.62 839.292 1342.41 749.303C1278.2 659.315 1362.9 576.816 1332.44 497.46C1301.98 418.104 1140.48 485.237 1098.32 361.304Z" fill="url(#paint6_linear_1891_5703)" fill-opacity="0.8"/>
<path d="M1098.32 361.304C1056.16 237.37 1116.16 205.313 1116.16 205.313C1116.16 205.313 1222.16 20.1525 1311.13 56.7843C1400.09 93.4162 1250.39 167.044 1283.92 276.91C1317.45 386.775 1436.77 255.06 1484.98 339.234C1533.18 423.409 1462.83 533.99 1508.06 612.958C1553.28 691.925 1640.28 610.415 1663.38 650.767C1686.49 691.118 1669.26 770.703 1612.91 796.059C1556.57 821.414 1406.62 839.292 1342.41 749.303C1278.2 659.315 1362.9 576.816 1332.44 497.46C1301.98 418.104 1140.48 485.237 1098.32 361.304Z" fill="url(#paint7_linear_1891_5703)" fill-opacity="0.2"/>
<path d="M1098.32 361.304C1056.16 237.37 1116.16 205.313 1116.16 205.313C1116.16 205.313 1222.16 20.1525 1311.13 56.7843C1400.09 93.4162 1250.39 167.044 1283.92 276.91C1317.45 386.775 1436.77 255.06 1484.98 339.234C1533.18 423.409 1462.83 533.99 1508.06 612.958C1553.28 691.925 1640.28 610.415 1663.38 650.767C1686.49 691.118 1669.26 770.703 1612.91 796.059C1556.57 821.414 1406.62 839.292 1342.41 749.303C1278.2 659.315 1362.9 576.816 1332.44 497.46C1301.98 418.104 1140.48 485.237 1098.32 361.304Z" fill="url(#paint8_radial_1891_5703)" fill-opacity="0.5"/>
<path d="M1098.32 361.304C1056.16 237.37 1116.16 205.313 1116.16 205.313C1116.16 205.313 1222.16 20.1525 1311.13 56.7843C1400.09 93.4162 1250.39 167.044 1283.92 276.91C1317.45 386.775 1436.77 255.06 1484.98 339.234C1533.18 423.409 1462.83 533.99 1508.06 612.958C1553.28 691.925 1640.28 610.415 1663.38 650.767C1686.49 691.118 1669.26 770.703 1612.91 796.059C1556.57 821.414 1406.62 839.292 1342.41 749.303C1278.2 659.315 1362.9 576.816 1332.44 497.46C1301.98 418.104 1140.48 485.237 1098.32 361.304Z" fill="url(#paint9_radial_1891_5703)" fill-opacity="0.5"/>
<path d="M1098.32 361.304C1056.16 237.37 1116.16 205.313 1116.16 205.313C1116.16 205.313 1222.16 20.1525 1311.13 56.7843C1400.09 93.4162 1250.39 167.044 1283.92 276.91C1317.45 386.775 1436.77 255.06 1484.98 339.234C1533.18 423.409 1462.83 533.99 1508.06 612.958C1553.28 691.925 1640.28 610.415 1663.38 650.767C1686.49 691.118 1669.26 770.703 1612.91 796.059C1556.57 821.414 1406.62 839.292 1342.41 749.303C1278.2 659.315 1362.9 576.816 1332.44 497.46C1301.98 418.104 1140.48 485.237 1098.32 361.304Z" fill="url(#paint10_radial_1891_5703)"/>
<path d="M1098.32 361.304C1056.16 237.37 1116.16 205.313 1116.16 205.313C1116.16 205.313 1222.16 20.1525 1311.13 56.7843C1400.09 93.4162 1250.39 167.044 1283.92 276.91C1317.45 386.775 1436.77 255.06 1484.98 339.234C1533.18 423.409 1462.83 533.99 1508.06 612.958C1553.28 691.925 1640.28 610.415 1663.38 650.767C1686.49 691.118 1669.26 770.703 1612.91 796.059C1556.57 821.414 1406.62 839.292 1342.41 749.303C1278.2 659.315 1362.9 576.816 1332.44 497.46C1301.98 418.104 1140.48 485.237 1098.32 361.304Z" fill="url(#paint11_radial_1891_5703)" fill-opacity="0.5"/>
</g>
<g opacity="0.3" filter="url(#filter4_i_1891_5703)">
<path d="M1098.32 361.304C1056.16 237.37 1116.16 205.313 1116.16 205.313C1116.16 205.313 1222.16 20.1525 1311.13 56.7843C1400.09 93.4162 1250.39 167.044 1283.92 276.91C1317.45 386.775 1436.77 255.06 1484.98 339.234C1533.18 423.409 1462.83 533.99 1508.06 612.958C1553.28 691.925 1640.28 610.415 1663.38 650.767C1686.49 691.118 1669.26 770.703 1612.91 796.059C1556.57 821.414 1406.62 839.292 1342.41 749.303C1278.2 659.315 1362.9 576.816 1332.44 497.46C1301.98 418.104 1140.48 485.237 1098.32 361.304Z" fill="url(#paint12_linear_1891_5703)" fill-opacity="0.1"/>
</g>
<g filter="url(#filter5_if_1891_5703)">
<circle cx="1162.07" cy="327.072" r="23.909" transform="rotate(-21.7741 1162.07 327.072)" fill="url(#paint13_linear_1891_5703)"/>
</g>
<g filter="url(#filter6_i_1891_5703)">
<circle cx="1427.64" cy="1152.63" r="65.1656" transform="rotate(25.0615 1427.64 1152.63)" fill="url(#paint14_linear_1891_5703)"/>
</g>
<g filter="url(#filter7_i_1891_5703)">
<circle cx="1400.07" cy="248.072" r="23.909" transform="rotate(-21.7741 1400.07 248.072)" fill="url(#paint15_linear_1891_5703)"/>
</g>
<g filter="url(#filter8_i_1891_5703)">
<circle cx="1029.63" cy="152.625" r="45.1107" transform="rotate(-21.7741 1029.63 152.625)" fill="url(#paint16_linear_1891_5703)"/>
</g>
<g filter="url(#filter9_if_1891_5703)">
<circle cx="151.175" cy="778.175" r="32.4519" transform="rotate(-21.7741 151.175 778.175)" fill="url(#paint17_linear_1891_5703)"/>
</g>
<g filter="url(#filter10_if_1891_5703)">
<circle cx="76.5198" cy="875.52" r="25.0229" transform="rotate(-21.7741 76.5198 875.52)" fill="url(#paint18_linear_1891_5703)"/>
</g>
<g filter="url(#filter11_if_1891_5703)">
<circle cx="1264.52" cy="1636.52" r="25.0229" transform="rotate(-21.7741 1264.52 1636.52)" fill="url(#paint19_linear_1891_5703)"/>
</g>
<g opacity="0.5" filter="url(#filter12_i_1891_5703)">
<ellipse cx="1359.87" cy="2302.87" rx="32.99" ry="32.9911" transform="rotate(-21.7741 1359.87 2302.87)" fill="url(#paint20_linear_1891_5703)"/>
</g>
<g opacity="0.5" filter="url(#filter13_i_1891_5703)">
<ellipse cx="208.874" cy="2169.87" rx="32.99" ry="32.9911" transform="rotate(-21.7741 208.874 2169.87)" fill="url(#paint21_linear_1891_5703)"/>
</g>
<g opacity="0.7" filter="url(#filter14_i_1891_5703)">
<circle cx="102.072" cy="2253.07" r="23.909" transform="rotate(-21.7741 102.072 2253.07)" fill="url(#paint22_linear_1891_5703)"/>
</g>
<g filter="url(#filter15_if_1891_5703)">
<circle cx="689.072" cy="2205.07" r="23.909" transform="rotate(-21.7741 689.072 2205.07)" fill="url(#paint23_linear_1891_5703)"/>
</g>
<g filter="url(#filter16_i_1891_5703)">
<ellipse cx="396.874" cy="2302.87" rx="32.99" ry="32.9911" transform="rotate(-21.7741 396.874 2302.87)" fill="url(#paint24_linear_1891_5703)"/>
</g>
<defs>
<filter id="filter0_i_1891_5703" x="115.504" y="1456.5" width="93.2441" height="92.2461" filterUnits="userSpaceOnUse" color-interpolation-filters="sRGB">
<feFlood flood-opacity="0" result="BackgroundImageFix"/>
<feBlend mode="normal" in="SourceGraphic" in2="BackgroundImageFix" result="shape"/>
<feColorMatrix in="SourceAlpha" type="matrix" values="0 0 0 0 0 0 0 0 0 0 0 0 0 0 0 0 0 0 127 0" result="hardAlpha"/>
<feOffset dx="3" dy="2"/>
<feGaussianBlur stdDeviation="5"/>
<feComposite in2="hardAlpha" operator="arithmetic" k2="-1" k3="1"/>
<feColorMatrix type="matrix" values="0 0 0 0 0.85098 0 0 0 0 0.85098 0 0 0 0 0.85098 0 0 0 1 0"/>
<feBlend mode="normal" in2="shape" result="effect1_innerShadow_1891_5703"/>
</filter>
<filter id="filter1_i_1891_5703" x="-18.543" y="584.453" width="133.361" height="132.361" filterUnits="userSpaceOnUse" color-interpolation-filters="sRGB">
<feFlood flood-opacity="0" result="BackgroundImageFix"/>
<feBlend mode="normal" in="SourceGraphic" in2="BackgroundImageFix" result="shape"/>
<feColorMatrix in="SourceAlpha" type="matrix" values="0 0 0 0 0 0 0 0 0 0 0 0 0 0 0 0 0 0 127 0" result="hardAlpha"/>
<feOffset dx="3" dy="2"/>
<feGaussianBlur stdDeviation="5"/>
<feComposite in2="hardAlpha" operator="arithmetic" k2="-1" k3="1"/>
<feColorMatrix type="matrix" values="0 0 0 0 0.85098 0 0 0 0 0.85098 0 0 0 0 0.85098 0 0 0 1 0"/>
<feBlend mode="normal" in2="shape" result="effect1_innerShadow_1891_5703"/>
</filter>
<filter id="filter2_i_1891_5703" x="1101.26" y="20.9609" width="590.041" height="769.654" filterUnits="userSpaceOnUse" color-interpolation-filters="sRGB">
<feFlood flood-opacity="0" result="BackgroundImageFix"/>
<feBlend mode="normal" in="SourceGraphic" in2="BackgroundImageFix" result="shape"/>
<feColorMatrix in="SourceAlpha" type="matrix" values="0 0 0 0 0 0 0 0 0 0 0 0 0 0 0 0 0 0 127 0" result="hardAlpha"/>
<feOffset dy="5"/>
<feGaussianBlur stdDeviation="5"/>
<feComposite in2="hardAlpha" operator="arithmetic" k2="-1" k3="1"/>
<feColorMatrix type="matrix" values="0 0 0 0 1 0 0 0 0 1 0 0 0 0 1 0 0 0 1 0"/>
<feBlend mode="normal" in2="shape" result="effect1_innerShadow_1891_5703"/>
</filter>
<filter id="filter3_i_1891_5703" x="1083.3" y="51.9863" width="590.041" height="769.654" filterUnits="userSpaceOnUse" color-interpolation-filters="sRGB">
<feFlood flood-opacity="0" result="BackgroundImageFix"/>
<feBlend mode="normal" in="SourceGraphic" in2="BackgroundImageFix" result="shape"/>
<feColorMatrix in="SourceAlpha" type="matrix" values="0 0 0 0 0 0 0 0 0 0 0 0 0 0 0 0 0 0 127 0" result="hardAlpha"/>
<feOffset dy="5"/>
<feGaussianBlur stdDeviation="5"/>
<feComposite in2="hardAlpha" operator="arithmetic" k2="-1" k3="1"/>
<feColorMatrix type="matrix" values="0 0 0 0 1 0 0 0 0 1 0 0 0 0 1 0 0 0 1 0"/>
<feBlend mode="normal" in2="shape" result="effect1_innerShadow_1891_5703"/>
</filter>
<filter id="filter4_i_1891_5703" x="1083.3" y="51.9863" width="590.041" height="769.654" filterUnits="userSpaceOnUse" color-interpolation-filters="sRGB">
<feFlood flood-opacity="0" result="BackgroundImageFix"/>
<feBlend mode="normal" in="SourceGraphic" in2="BackgroundImageFix" result="shape"/>
<feColorMatrix in="SourceAlpha" type="matrix" values="0 0 0 0 0 0 0 0 0 0 0 0 0 0 0 0 0 0 127 0" result="hardAlpha"/>
<feOffset dy="5"/>
<feGaussianBlur stdDeviation="5"/>
<feComposite in2="hardAlpha" operator="arithmetic" k2="-1" k3="1"/>
<feColorMatrix type="matrix" values="0 0 0 0 1 0 0 0 0 1 0 0 0 0 1 0 0 0 1 0"/>
<feBlend mode="normal" in2="shape" result="effect1_innerShadow_1891_5703"/>
</filter>
<filter id="filter5_if_1891_5703" x="1134.16" y="299.156" width="55.832" height="55.832" filterUnits="userSpaceOnUse" color-interpolation-filters="sRGB">
<feFlood flood-opacity="0" result="BackgroundImageFix"/>
<feBlend mode="normal" in="SourceGraphic" in2="BackgroundImageFix" result="shape"/>
<feColorMatrix in="SourceAlpha" type="matrix" values="0 0 0 0 0 0 0 0 0 0 0 0 0 0 0 0 0 0 127 0" result="hardAlpha"/>
<feOffset dx="3" dy="2"/>
<feGaussianBlur stdDeviation="5"/>
<feComposite in2="hardAlpha" operator="arithmetic" k2="-1" k3="1"/>
<feColorMatrix type="matrix" values="0 0 0 0 0.85098 0 0 0 0 0.85098 0 0 0 0 0.85098 0 0 0 1 0"/>
<feBlend mode="normal" in2="shape" result="effect1_innerShadow_1891_5703"/>
<feGaussianBlur stdDeviation="2" result="effect2_foregroundBlur_1891_5703"/>
</filter>
<filter id="filter6_i_1891_5703" x="1362.46" y="1087.45" width="133.361" height="132.361" filterUnits="userSpaceOnUse" color-interpolation-filters="sRGB">
<feFlood flood-opacity="0" result="BackgroundImageFix"/>
<feBlend mode="normal" in="SourceGraphic" in2="BackgroundImageFix" result="shape"/>
<feColorMatrix in="SourceAlpha" type="matrix" values="0 0 0 0 0 0 0 0 0 0 0 0 0 0 0 0 0 0 127 0" result="hardAlpha"/>
<feOffset dx="3" dy="2"/>
<feGaussianBlur stdDeviation="5"/>
<feComposite in2="hardAlpha" operator="arithmetic" k2="-1" k3="1"/>
<feColorMatrix type="matrix" values="0 0 0 0 0.85098 0 0 0 0 0.85098 0 0 0 0 0.85098 0 0 0 1 0"/>
<feBlend mode="normal" in2="shape" result="effect1_innerShadow_1891_5703"/>
</filter>
<filter id="filter7_i_1891_5703" x="1373.16" y="224.156" width="50.832" height="49.832" filterUnits="userSpaceOnUse" color-interpolation-filters="sRGB">
<feFlood flood-opacity="0" result="BackgroundImageFix"/>
<feBlend mode="normal" in="SourceGraphic" in2="BackgroundImageFix" result="shape"/>
<feColorMatrix in="SourceAlpha" type="matrix" values="0 0 0 0 0 0 0 0 0 0 0 0 0 0 0 0 0 0 127 0" result="hardAlpha"/>
<feOffset dx="-3" dy="2"/>
<feGaussianBlur stdDeviation="5"/>
<feComposite in2="hardAlpha" operator="arithmetic" k2="-1" k3="1"/>
<feColorMatrix type="matrix" values="0 0 0 0 0.85098 0 0 0 0 0.85098 0 0 0 0 0.85098 0 0 0 1 0"/>
<feBlend mode="normal" in2="shape" result="effect1_innerShadow_1891_5703"/>
</filter>
<filter id="filter8_i_1891_5703" x="981.504" y="107.502" width="93.2441" height="92.2461" filterUnits="userSpaceOnUse" color-interpolation-filters="sRGB">
<feFlood flood-opacity="0" result="BackgroundImageFix"/>
<feBlend mode="normal" in="SourceGraphic" in2="BackgroundImageFix" result="shape"/>
<feColorMatrix in="SourceAlpha" type="matrix" values="0 0 0 0 0 0 0 0 0 0 0 0 0 0 0 0 0 0 127 0" result="hardAlpha"/>
<feOffset dx="-3" dy="2"/>
<feGaussianBlur stdDeviation="5"/>
<feComposite in2="hardAlpha" operator="arithmetic" k2="-1" k3="1"/>
<feColorMatrix type="matrix" values="0 0 0 0 0.85098 0 0 0 0 0.85098 0 0 0 0 0.85098 0 0 0 1 0"/>
<feBlend mode="normal" in2="shape" result="effect1_innerShadow_1891_5703"/>
</filter>
<filter id="filter9_if_1891_5703" x="113.715" y="740.715" width="74.9199" height="74.9199" filterUnits="userSpaceOnUse" color-interpolation-filters="sRGB">
<feFlood flood-opacity="0" result="BackgroundImageFix"/>
<feBlend mode="normal" in="SourceGraphic" in2="BackgroundImageFix" result="shape"/>
<feColorMatrix in="SourceAlpha" type="matrix" values="0 0 0 0 0 0 0 0 0 0 0 0 0 0 0 0 0 0 127 0" result="hardAlpha"/>
<feOffset dx="-3" dy="2"/>
<feGaussianBlur stdDeviation="5"/>
<feComposite in2="hardAlpha" operator="arithmetic" k2="-1" k3="1"/>
<feColorMatrix type="matrix" values="0 0 0 0 0.85098 0 0 0 0 0.85098 0 0 0 0 0.85098 0 0 0 1 0"/>
<feBlend mode="normal" in2="shape" result="effect1_innerShadow_1891_5703"/>
<feGaussianBlur stdDeviation="2.5" result="effect2_foregroundBlur_1891_5703"/>
</filter>
<filter id="filter10_if_1891_5703" x="44.4902" y="843.49" width="64.0586" height="64.0586" filterUnits="userSpaceOnUse" color-interpolation-filters="sRGB">
<feFlood flood-opacity="0" result="BackgroundImageFix"/>
<feBlend mode="normal" in="SourceGraphic" in2="BackgroundImageFix" result="shape"/>
<feColorMatrix in="SourceAlpha" type="matrix" values="0 0 0 0 0 0 0 0 0 0 0 0 0 0 0 0 0 0 127 0" result="hardAlpha"/>
<feOffset dx="-3" dy="2"/>
<feGaussianBlur stdDeviation="5"/>
<feComposite in2="hardAlpha" operator="arithmetic" k2="-1" k3="1"/>
<feColorMatrix type="matrix" values="0 0 0 0 0.85098 0 0 0 0 0.85098 0 0 0 0 0.85098 0 0 0 1 0"/>
<feBlend mode="normal" in2="shape" result="effect1_innerShadow_1891_5703"/>
<feGaussianBlur stdDeviation="3.5" result="effect2_foregroundBlur_1891_5703"/>
</filter>
<filter id="filter11_if_1891_5703" x="1232.49" y="1604.49" width="64.0586" height="64.0586" filterUnits="userSpaceOnUse" color-interpolation-filters="sRGB">
<feFlood flood-opacity="0" result="BackgroundImageFix"/>
<feBlend mode="normal" in="SourceGraphic" in2="BackgroundImageFix" result="shape"/>
<feColorMatrix in="SourceAlpha" type="matrix" values="0 0 0 0 0 0 0 0 0 0 0 0 0 0 0 0 0 0 127 0" result="hardAlpha"/>
<feOffset dx="-3" dy="2"/>
<feGaussianBlur stdDeviation="5"/>
<feComposite in2="hardAlpha" operator="arithmetic" k2="-1" k3="1"/>
<feColorMatrix type="matrix" values="0 0 0 0 0.85098 0 0 0 0 0.85098 0 0 0 0 0.85098 0 0 0 1 0"/>
<feBlend mode="normal" in2="shape" result="effect1_innerShadow_1891_5703"/>
<feGaussianBlur stdDeviation="3.5" result="effect2_foregroundBlur_1891_5703"/>
</filter>
<filter id="filter12_i_1891_5703" x="1326.88" y="2269.88" width="68.998" height="68" filterUnits="userSpaceOnUse" color-interpolation-filters="sRGB">
<feFlood flood-opacity="0" result="BackgroundImageFix"/>
<feBlend mode="normal" in="SourceGraphic" in2="BackgroundImageFix" result="shape"/>
<feColorMatrix in="SourceAlpha" type="matrix" values="0 0 0 0 0 0 0 0 0 0 0 0 0 0 0 0 0 0 127 0" result="hardAlpha"/>
<feOffset dx="3" dy="2"/>
<feGaussianBlur stdDeviation="5"/>
<feComposite in2="hardAlpha" operator="arithmetic" k2="-1" k3="1"/>
<feColorMatrix type="matrix" values="0 0 0 0 0.85098 0 0 0 0 0.85098 0 0 0 0 0.85098 0 0 0 1 0"/>
<feBlend mode="normal" in2="shape" result="effect1_innerShadow_1891_5703"/>
</filter>
<filter id="filter13_i_1891_5703" x="172.875" y="2136.87" width="68.998" height="68" filterUnits="userSpaceOnUse" color-interpolation-filters="sRGB">
<feFlood flood-opacity="0" result="BackgroundImageFix"/>
<feBlend mode="normal" in="SourceGraphic" in2="BackgroundImageFix" result="shape"/>
<feColorMatrix in="SourceAlpha" type="matrix" values="0 0 0 0 0 0 0 0 0 0 0 0 0 0 0 0 0 0 127 0" result="hardAlpha"/>
<feOffset dx="-3" dy="2"/>
<feGaussianBlur stdDeviation="5"/>
<feComposite in2="hardAlpha" operator="arithmetic" k2="-1" k3="1"/>
<feColorMatrix type="matrix" values="0 0 0 0 0.85098 0 0 0 0 0.85098 0 0 0 0 0.85098 0 0 0 1 0"/>
<feBlend mode="normal" in2="shape" result="effect1_innerShadow_1891_5703"/>
</filter>
<filter id="filter14_i_1891_5703" x="75.1562" y="2229.16" width="50.832" height="49.832" filterUnits="userSpaceOnUse" color-interpolation-filters="sRGB">
<feFlood flood-opacity="0" result="BackgroundImageFix"/>
<feBlend mode="normal" in="SourceGraphic" in2="BackgroundImageFix" result="shape"/>
<feColorMatrix in="SourceAlpha" type="matrix" values="0 0 0 0 0 0 0 0 0 0 0 0 0 0 0 0 0 0 127 0" result="hardAlpha"/>
<feOffset dx="-3" dy="2"/>
<feGaussianBlur stdDeviation="5"/>
<feComposite in2="hardAlpha" operator="arithmetic" k2="-1" k3="1"/>
<feColorMatrix type="matrix" values="0 0 0 0 0.85098 0 0 0 0 0.85098 0 0 0 0 0.85098 0 0 0 1 0"/>
<feBlend mode="normal" in2="shape" result="effect1_innerShadow_1891_5703"/>
</filter>
<filter id="filter15_if_1891_5703" x="661.156" y="2177.16" width="55.832" height="55.832" filterUnits="userSpaceOnUse" color-interpolation-filters="sRGB">
<feFlood flood-opacity="0" result="BackgroundImageFix"/>
<feBlend mode="normal" in="SourceGraphic" in2="BackgroundImageFix" result="shape"/>
<feColorMatrix in="SourceAlpha" type="matrix" values="0 0 0 0 0 0 0 0 0 0 0 0 0 0 0 0 0 0 127 0" result="hardAlpha"/>
<feOffset dx="3" dy="2"/>
<feGaussianBlur stdDeviation="5"/>
<feComposite in2="hardAlpha" operator="arithmetic" k2="-1" k3="1"/>
<feColorMatrix type="matrix" values="0 0 0 0 0.85098 0 0 0 0 0.85098 0 0 0 0 0.85098 0 0 0 1 0"/>
<feBlend mode="normal" in2="shape" result="effect1_innerShadow_1891_5703"/>
<feGaussianBlur stdDeviation="2" result="effect2_foregroundBlur_1891_5703"/>
</filter>
<filter id="filter16_i_1891_5703" x="360.875" y="2269.88" width="68.998" height="68" filterUnits="userSpaceOnUse" color-interpolation-filters="sRGB">
<feFlood flood-opacity="0" result="BackgroundImageFix"/>
<feBlend mode="normal" in="SourceGraphic" in2="BackgroundImageFix" result="shape"/>
<feColorMatrix in="SourceAlpha" type="matrix" values="0 0 0 0 0 0 0 0 0 0 0 0 0 0 0 0 0 0 127 0" result="hardAlpha"/>
<feOffset dx="-3" dy="2"/>
<feGaussianBlur stdDeviation="5"/>
<feComposite in2="hardAlpha" operator="arithmetic" k2="-1" k3="1"/>
<feColorMatrix type="matrix" values="0 0 0 0 0.85098 0 0 0 0 0.85098 0 0 0 0 0.85098 0 0 0 1 0"/>
<feBlend mode="normal" in2="shape" result="effect1_innerShadow_1891_5703"/>
</filter>
<linearGradient id="paint0_linear_1891_5703" x1="149.299" y1="1445.79" x2="178.862" y2="1546.74" gradientUnits="userSpaceOnUse">
<stop stop-color="#D9D9D9"/>
<stop offset="0.0572917" stop-color="#DB77FD"/>
<stop offset="0.583333" stop-color="#4769FE"/>
<stop offset="1" stop-color="#4C67E0"/>
</linearGradient>
<linearGradient id="paint1_linear_1891_5703" x1="30.2756" y1="568.971" x2="72.9815" y2="714.8" gradientUnits="userSpaceOnUse">
<stop stop-color="#D9D9D9"/>
<stop offset="0.0572917" stop-color="#04E9FF"/>
<stop offset="1" stop-color="#5670E4"/>
</linearGradient>
<linearGradient id="paint2_linear_1891_5703" x1="1040.99" y1="159.514" x2="1698.78" y2="726.604" gradientUnits="userSpaceOnUse">
<stop stop-color="#4769FE"/>
<stop offset="1" stop-color="#AF5BCC"/>
</linearGradient>
<radialGradient id="paint3_radial_1891_5703" cx="0" cy="0" r="1" gradientUnits="userSpaceOnUse" gradientTransform="translate(1314.01 643.304) rotate(29.4121) scale(306.745 378.205)">
<stop stop-color="#04E9FF"/>
<stop offset="1" stop-color="#A78EE8" stop-opacity="0.22"/>
</radialGradient>
<radialGradient id="paint4_radial_1891_5703" cx="0" cy="0" r="1" gradientUnits="userSpaceOnUse" gradientTransform="translate(1130.88 53.8763) rotate(51.5251) scale(311.565 438.704)">
<stop stop-color="#04E9FF"/>
<stop offset="0.555814" stop-color="#8C89F2" stop-opacity="0.03"/>
</radialGradient>
<radialGradient id="paint5_radial_1891_5703" cx="0" cy="0" r="1" gradientUnits="userSpaceOnUse" gradientTransform="translate(1072.5 293.008) rotate(15.7066) scale(200.473 192.163)">
<stop stop-color="white"/>
<stop offset="1" stop-color="#9C95F1" stop-opacity="0.26"/>
</radialGradient>
<linearGradient id="paint6_linear_1891_5703" x1="1023.04" y1="190.54" x2="1680.83" y2="757.63" gradientUnits="userSpaceOnUse">
<stop stop-color="#4769FE"/>
<stop offset="1" stop-color="#AF5BCC"/>
</linearGradient>
<linearGradient id="paint7_linear_1891_5703" x1="1544.19" y1="872.18" x2="1565.58" y2="798.855" gradientUnits="userSpaceOnUse">
<stop stop-color="white"/>
<stop offset="1" stop-color="white" stop-opacity="0"/>
</linearGradient>
<radialGradient id="paint8_radial_1891_5703" cx="0" cy="0" r="1" gradientUnits="userSpaceOnUse" gradientTransform="translate(1477 321.218) rotate(84.9704) scale(328.192 140.666)">
<stop stop-color="white"/>
<stop offset="1" stop-color="#A696EE" stop-opacity="0.42"/>
</radialGradient>
<radialGradient id="paint9_radial_1891_5703" cx="0" cy="0" r="1" gradientUnits="userSpaceOnUse" gradientTransform="translate(1296.06 674.329) rotate(29.4121) scale(306.745 378.205)">
<stop stop-color="#04E9FF"/>
<stop offset="1" stop-color="#A78EE8" stop-opacity="0.22"/>
</radialGradient>
<radialGradient id="paint10_radial_1891_5703" cx="0" cy="0" r="1" gradientUnits="userSpaceOnUse" gradientTransform="translate(1112.92 84.9017) rotate(51.5251) scale(311.565 438.704)">
<stop stop-color="#04E9FF"/>
<stop offset="0.555814" stop-color="#8C89F2" stop-opacity="0.03"/>
</radialGradient>
<radialGradient id="paint11_radial_1891_5703" cx="0" cy="0" r="1" gradientUnits="userSpaceOnUse" gradientTransform="translate(1054.54 324.034) rotate(15.7066) scale(200.473 192.163)">
<stop stop-color="white"/>
<stop offset="1" stop-color="#9C95F1" stop-opacity="0.26"/>
</radialGradient>
<linearGradient id="paint12_linear_1891_5703" x1="1023.04" y1="190.54" x2="1680.83" y2="757.63" gradientUnits="userSpaceOnUse">
<stop stop-color="#4769FE"/>
<stop offset="1" stop-color="#AF5BCC"/>
</linearGradient>
<linearGradient id="paint13_linear_1891_5703" x1="1156.07" y1="297.478" x2="1171.74" y2="350.981" gradientUnits="userSpaceOnUse">
<stop stop-color="#D9D9D9"/>
<stop offset="0.0572917" stop-color="#04E9FF"/>
<stop offset="1" stop-color="#5670E4"/>
</linearGradient>
<linearGradient id="paint14_linear_1891_5703" x1="1411.28" y1="1071.97" x2="1453.98" y2="1217.8" gradientUnits="userSpaceOnUse">
<stop stop-color="#D9D9D9"/>
<stop offset="0.0572917" stop-color="#04E9FF"/>
<stop offset="1" stop-color="#5670E4"/>
</linearGradient>
<linearGradient id="paint15_linear_1891_5703" x1="1394.07" y1="218.478" x2="1409.74" y2="271.981" gradientUnits="userSpaceOnUse">
<stop stop-color="#D9D9D9"/>
<stop offset="0.0572917" stop-color="#04E9FF"/>
<stop offset="1" stop-color="#5670E4"/>
</linearGradient>
<linearGradient id="paint16_linear_1891_5703" x1="1018.3" y1="96.7866" x2="1047.86" y2="197.736" gradientUnits="userSpaceOnUse">
<stop stop-color="#D9D9D9"/>
<stop offset="0.0572917" stop-color="#DB77FD"/>
<stop offset="0.583333" stop-color="#4769FE"/>
<stop offset="1" stop-color="#4C67E0"/>
</linearGradient>
<linearGradient id="paint17_linear_1891_5703" x1="143.026" y1="738.005" x2="164.293" y2="810.627" gradientUnits="userSpaceOnUse">
<stop stop-color="#D9D9D9"/>
<stop offset="0.0572917" stop-color="#DB77FD"/>
<stop offset="0.583333" stop-color="#4769FE"/>
<stop offset="1" stop-color="#4C67E0"/>
</linearGradient>
<linearGradient id="paint18_linear_1891_5703" x1="70.2368" y1="844.546" x2="86.6354" y2="900.543" gradientUnits="userSpaceOnUse">
<stop stop-color="#D9D9D9"/>
<stop offset="0.0572917" stop-color="#DB77FD"/>
<stop offset="0.583333" stop-color="#4769FE"/>
<stop offset="1" stop-color="#4C67E0"/>
</linearGradient>
<linearGradient id="paint19_linear_1891_5703" x1="1258.24" y1="1605.55" x2="1274.64" y2="1661.54" gradientUnits="userSpaceOnUse">
<stop stop-color="#D9D9D9"/>
<stop offset="0.0572917" stop-color="#DB77FD"/>
<stop offset="0.583333" stop-color="#4769FE"/>
<stop offset="1" stop-color="#4C67E0"/>
</linearGradient>
<linearGradient id="paint20_linear_1891_5703" x1="1353.28" y1="2263.11" x2="1373.21" y2="2335.86" gradientUnits="userSpaceOnUse">
<stop stop-color="#04E9FF"/>
<stop offset="0.1875" stop-color="#AF5BCC"/>
<stop offset="0.822917" stop-color="#6B62D7"/>
<stop offset="1" stop-color="#5D55BD"/>
</linearGradient>
<linearGradient id="paint21_linear_1891_5703" x1="202.279" y1="2130.11" x2="222.212" y2="2202.86" gradientUnits="userSpaceOnUse">
<stop stop-color="#04E9FF"/>
<stop offset="0.1875" stop-color="#AF5BCC"/>
<stop offset="0.822917" stop-color="#6B62D7"/>
<stop offset="1" stop-color="#5D55BD"/>
</linearGradient>
<linearGradient id="paint22_linear_1891_5703" x1="96.0689" y1="2223.48" x2="111.737" y2="2276.98" gradientUnits="userSpaceOnUse">
<stop stop-color="#D9D9D9"/>
<stop offset="0.0572917" stop-color="#04E9FF"/>
<stop offset="1" stop-color="#5670E4"/>
</linearGradient>
<linearGradient id="paint23_linear_1891_5703" x1="683.069" y1="2175.48" x2="698.737" y2="2228.98" gradientUnits="userSpaceOnUse">
<stop stop-color="#D9D9D9"/>
<stop offset="0.0572917" stop-color="#04E9FF"/>
<stop offset="1" stop-color="#5670E4"/>
</linearGradient>
<linearGradient id="paint24_linear_1891_5703" x1="390.279" y1="2263.11" x2="410.212" y2="2335.86" gradientUnits="userSpaceOnUse">
<stop stop-color="#04E9FF"/>
<stop offset="0.1875" stop-color="#AF5BCC"/>
<stop offset="0.822917" stop-color="#6B62D7"/>
<stop offset="1" stop-color="#5D55BD"/>
</linearGradient>
</defs>
</svg>
