<svg width="791" height="844" viewBox="0 0 791 844" fill="none" xmlns="http://www.w3.org/2000/svg">
<g filter="url(#filter0_i_1891_5704)">
<path d="M453.811 114.367C431.947 33.5358 513.051 -66.6373 513.051 -66.6373L774.163 21.9235C774.163 21.9235 853.746 146.087 766.858 193.708C679.969 241.329 918.954 336.25 824.461 374.885C729.968 413.52 680.121 467.236 606.548 434.472C532.975 401.708 506.179 409.033 427.844 411.766C349.509 414.499 268.128 299.291 310.234 244.555C352.34 189.819 475.675 195.197 453.811 114.367Z" fill="#E2E1F2"/>
<path d="M453.811 114.367C431.947 33.5358 513.051 -66.6373 513.051 -66.6373L774.163 21.9235C774.163 21.9235 853.746 146.087 766.858 193.708C679.969 241.329 918.954 336.25 824.461 374.885C729.968 413.52 680.121 467.236 606.548 434.472C532.975 401.708 506.179 409.033 427.844 411.766C349.509 414.499 268.128 299.291 310.234 244.555C352.34 189.819 475.675 195.197 453.811 114.367Z" fill="url(#paint0_linear_1891_5704)"/>
<path d="M453.811 114.367C431.947 33.5358 513.051 -66.6373 513.051 -66.6373L774.163 21.9235C774.163 21.9235 853.746 146.087 766.858 193.708C679.969 241.329 918.954 336.25 824.461 374.885C729.968 413.52 680.121 467.236 606.548 434.472C532.975 401.708 506.179 409.033 427.844 411.766C349.509 414.499 268.128 299.291 310.234 244.555C352.34 189.819 475.675 195.197 453.811 114.367Z" fill="url(#paint1_radial_1891_5704)" fill-opacity="0.5"/>
<path d="M453.811 114.367C431.947 33.5358 513.051 -66.6373 513.051 -66.6373L774.163 21.9235C774.163 21.9235 853.746 146.087 766.858 193.708C679.969 241.329 918.954 336.25 824.461 374.885C729.968 413.52 680.121 467.236 606.548 434.472C532.975 401.708 506.179 409.033 427.844 411.766C349.509 414.499 268.128 299.291 310.234 244.555C352.34 189.819 475.675 195.197 453.811 114.367Z" fill="url(#paint2_radial_1891_5704)" fill-opacity="0.5"/>
</g>
<g filter="url(#filter1_i_1891_5704)">
<path d="M492.11 131.748C470.246 50.9168 533.462 -31.408 533.462 -31.408L812.462 39.3045C812.462 39.3045 892.045 163.468 805.157 211.089C718.268 258.71 957.253 353.631 862.76 392.266C768.267 430.901 718.42 484.616 644.847 451.853C571.275 419.089 544.478 426.414 466.143 429.147C387.809 431.88 306.427 316.672 348.533 261.936C390.639 207.2 513.974 212.578 492.11 131.748Z" fill="#E2E1F2"/>
<path d="M492.11 131.748C470.246 50.9168 533.462 -31.408 533.462 -31.408L812.462 39.3045C812.462 39.3045 892.045 163.468 805.157 211.089C718.268 258.71 957.253 353.631 862.76 392.266C768.267 430.901 718.42 484.616 644.847 451.853C571.275 419.089 544.478 426.414 466.143 429.147C387.809 431.88 306.427 316.672 348.533 261.936C390.639 207.2 513.974 212.578 492.11 131.748Z" fill="url(#paint3_linear_1891_5704)" fill-opacity="0.8"/>
<path d="M492.11 131.748C470.246 50.9168 533.462 -31.408 533.462 -31.408L812.462 39.3045C812.462 39.3045 892.045 163.468 805.157 211.089C718.268 258.71 957.253 353.631 862.76 392.266C768.267 430.901 718.42 484.616 644.847 451.853C571.275 419.089 544.478 426.414 466.143 429.147C387.809 431.88 306.427 316.672 348.533 261.936C390.639 207.2 513.974 212.578 492.11 131.748Z" fill="url(#paint4_radial_1891_5704)" fill-opacity="0.5"/>
<path d="M492.11 131.748C470.246 50.9168 533.462 -31.408 533.462 -31.408L812.462 39.3045C812.462 39.3045 892.045 163.468 805.157 211.089C718.268 258.71 957.253 353.631 862.76 392.266C768.267 430.901 718.42 484.616 644.847 451.853C571.275 419.089 544.478 426.414 466.143 429.147C387.809 431.88 306.427 316.672 348.533 261.936C390.639 207.2 513.974 212.578 492.11 131.748Z" fill="url(#paint5_radial_1891_5704)" fill-opacity="0.65"/>
<path d="M492.11 131.748C470.246 50.9168 533.462 -31.408 533.462 -31.408L812.462 39.3045C812.462 39.3045 892.045 163.468 805.157 211.089C718.268 258.71 957.253 353.631 862.76 392.266C768.267 430.901 718.42 484.616 644.847 451.853C571.275 419.089 544.478 426.414 466.143 429.147C387.809 431.88 306.427 316.672 348.533 261.936C390.639 207.2 513.974 212.578 492.11 131.748Z" fill="url(#paint6_radial_1891_5704)" fill-opacity="0.65"/>
</g>
<g opacity="0.5" filter="url(#filter2_f_1891_5704)">
<path d="M755.809 247.724L654.413 314.246L583.062 419.047L710.867 349.561L823.238 236.18L755.809 247.724Z" fill="#9691F0"/>
</g>
<g filter="url(#filter3_i_1891_5704)">
<path d="M343.772 569.991C235.032 568.992 185.43 544.493 109.761 593.99C34.0924 643.486 -49.0883 796.475 130.306 775.977C309.7 755.478 391.878 716.981 426.453 731.48C461.027 745.979 869.421 803.475 877.437 806.975C885.453 810.474 862.5 431 862.5 431C862.5 431 769.204 582.491 688.024 593.99C606.844 605.489 630.4 510.496 536.693 521.995C442.986 533.494 452.512 570.991 343.772 569.991Z" fill="white"/>
<path d="M343.772 569.991C235.032 568.992 185.43 544.493 109.761 593.99C34.0924 643.486 -49.0883 796.475 130.306 775.977C309.7 755.478 391.878 716.981 426.453 731.48C461.027 745.979 869.421 803.475 877.437 806.975C885.453 810.474 862.5 431 862.5 431C862.5 431 769.204 582.491 688.024 593.99C606.844 605.489 630.4 510.496 536.693 521.995C442.986 533.494 452.512 570.991 343.772 569.991Z" fill="url(#paint7_radial_1891_5704)"/>
<path d="M343.772 569.991C235.032 568.992 185.43 544.493 109.761 593.99C34.0924 643.486 -49.0883 796.475 130.306 775.977C309.7 755.478 391.878 716.981 426.453 731.48C461.027 745.979 869.421 803.475 877.437 806.975C885.453 810.474 862.5 431 862.5 431C862.5 431 769.204 582.491 688.024 593.99C606.844 605.489 630.4 510.496 536.693 521.995C442.986 533.494 452.512 570.991 343.772 569.991Z" fill="url(#paint8_linear_1891_5704)"/>
<path d="M343.772 569.991C235.032 568.992 185.43 544.493 109.761 593.99C34.0924 643.486 -49.0883 796.475 130.306 775.977C309.7 755.478 391.878 716.981 426.453 731.48C461.027 745.979 869.421 803.475 877.437 806.975C885.453 810.474 862.5 431 862.5 431C862.5 431 769.204 582.491 688.024 593.99C606.844 605.489 630.4 510.496 536.693 521.995C442.986 533.494 452.512 570.991 343.772 569.991Z" fill="url(#paint9_radial_1891_5704)"/>
<path d="M343.772 569.991C235.032 568.992 185.43 544.493 109.761 593.99C34.0924 643.486 -49.0883 796.475 130.306 775.977C309.7 755.478 391.878 716.981 426.453 731.48C461.027 745.979 869.421 803.475 877.437 806.975C885.453 810.474 862.5 431 862.5 431C862.5 431 769.204 582.491 688.024 593.99C606.844 605.489 630.4 510.496 536.693 521.995C442.986 533.494 452.512 570.991 343.772 569.991Z" fill="url(#paint10_radial_1891_5704)" fill-opacity="0.5"/>
</g>
<g filter="url(#filter4_i_1891_5704)">
<path d="M320.772 606.991C212.032 605.992 162.43 581.493 86.7611 630.99C11.0924 680.486 -72.0883 833.475 107.306 812.977C286.7 792.478 368.878 753.981 403.453 768.48C438.027 782.979 846.421 840.475 854.437 843.975C862.453 847.474 854.437 487 854.437 487C854.437 487 746.204 619.491 665.024 630.99C583.844 642.489 607.4 547.496 513.693 558.995C419.986 570.494 429.512 607.991 320.772 606.991Z" fill="white"/>
<path d="M320.772 606.991C212.032 605.992 162.43 581.493 86.7611 630.99C11.0924 680.486 -72.0883 833.475 107.306 812.977C286.7 792.478 368.878 753.981 403.453 768.48C438.027 782.979 846.421 840.475 854.437 843.975C862.453 847.474 854.437 487 854.437 487C854.437 487 746.204 619.491 665.024 630.99C583.844 642.489 607.4 547.496 513.693 558.995C419.986 570.494 429.512 607.991 320.772 606.991Z" fill="url(#paint11_radial_1891_5704)"/>
<path d="M320.772 606.991C212.032 605.992 162.43 581.493 86.7611 630.99C11.0924 680.486 -72.0883 833.475 107.306 812.977C286.7 792.478 368.878 753.981 403.453 768.48C438.027 782.979 846.421 840.475 854.437 843.975C862.453 847.474 854.437 487 854.437 487C854.437 487 746.204 619.491 665.024 630.99C583.844 642.489 607.4 547.496 513.693 558.995C419.986 570.494 429.512 607.991 320.772 606.991Z" fill="url(#paint12_linear_1891_5704)" fill-opacity="0.5"/>
<path d="M320.772 606.991C212.032 605.992 162.43 581.493 86.7611 630.99C11.0924 680.486 -72.0883 833.475 107.306 812.977C286.7 792.478 368.878 753.981 403.453 768.48C438.027 782.979 846.421 840.475 854.437 843.975C862.453 847.474 854.437 487 854.437 487C854.437 487 746.204 619.491 665.024 630.99C583.844 642.489 607.4 547.496 513.693 558.995C419.986 570.494 429.512 607.991 320.772 606.991Z" fill="url(#paint13_radial_1891_5704)"/>
<path d="M320.772 606.991C212.032 605.992 162.43 581.493 86.7611 630.99C11.0924 680.486 -72.0883 833.475 107.306 812.977C286.7 792.478 368.878 753.981 403.453 768.48C438.027 782.979 846.421 840.475 854.437 843.975C862.453 847.474 854.437 487 854.437 487C854.437 487 746.204 619.491 665.024 630.99C583.844 642.489 607.4 547.496 513.693 558.995C419.986 570.494 429.512 607.991 320.772 606.991Z" fill="url(#paint14_radial_1891_5704)" fill-opacity="0.65"/>
<path d="M320.772 606.991C212.032 605.992 162.43 581.493 86.7611 630.99C11.0924 680.486 -72.0883 833.475 107.306 812.977C286.7 792.478 368.878 753.981 403.453 768.48C438.027 782.979 846.421 840.475 854.437 843.975C862.453 847.474 854.437 487 854.437 487C854.437 487 746.204 619.491 665.024 630.99C583.844 642.489 607.4 547.496 513.693 558.995C419.986 570.494 429.512 607.991 320.772 606.991Z" fill="url(#paint15_linear_1891_5704)" fill-opacity="0.2"/>
</g>
<defs>
<filter id="filter0_i_1891_5704" x="298.738" y="-66.6367" width="548.242" height="515.26" filterUnits="userSpaceOnUse" color-interpolation-filters="sRGB">
<feFlood flood-opacity="0" result="BackgroundImageFix"/>
<feBlend mode="normal" in="SourceGraphic" in2="BackgroundImageFix" result="shape"/>
<feColorMatrix in="SourceAlpha" type="matrix" values="0 0 0 0 0 0 0 0 0 0 0 0 0 0 0 0 0 0 127 0" result="hardAlpha"/>
<feOffset dy="6"/>
<feGaussianBlur stdDeviation="2"/>
<feComposite in2="hardAlpha" operator="arithmetic" k2="-1" k3="1"/>
<feColorMatrix type="matrix" values="0 0 0 0 0.85098 0 0 0 0 0.85098 0 0 0 0 0.85098 0 0 0 1 0"/>
<feBlend mode="normal" in2="shape" result="effect1_innerShadow_1891_5704"/>
</filter>
<filter id="filter1_i_1891_5704" x="337.037" y="-31.4082" width="548.242" height="497.412" filterUnits="userSpaceOnUse" color-interpolation-filters="sRGB">
<feFlood flood-opacity="0" result="BackgroundImageFix"/>
<feBlend mode="normal" in="SourceGraphic" in2="BackgroundImageFix" result="shape"/>
<feColorMatrix in="SourceAlpha" type="matrix" values="0 0 0 0 0 0 0 0 0 0 0 0 0 0 0 0 0 0 127 0" result="hardAlpha"/>
<feOffset dy="6"/>
<feGaussianBlur stdDeviation="2"/>
<feComposite in2="hardAlpha" operator="arithmetic" k2="-1" k3="1"/>
<feColorMatrix type="matrix" values="0 0 0 0 0.85098 0 0 0 0 0.85098 0 0 0 0 0.85098 0 0 0 1 0"/>
<feBlend mode="normal" in2="shape" result="effect1_innerShadow_1891_5704"/>
</filter>
<filter id="filter2_f_1891_5704" x="533.062" y="186.18" width="340.176" height="282.867" filterUnits="userSpaceOnUse" color-interpolation-filters="sRGB">
<feFlood flood-opacity="0" result="BackgroundImageFix"/>
<feBlend mode="normal" in="SourceGraphic" in2="BackgroundImageFix" result="shape"/>
<feGaussianBlur stdDeviation="25" result="effect1_foregroundBlur_1891_5704"/>
</filter>
<filter id="filter3_i_1891_5704" x="23" y="431" width="856.137" height="379.998" filterUnits="userSpaceOnUse" color-interpolation-filters="sRGB">
<feFlood flood-opacity="0" result="BackgroundImageFix"/>
<feBlend mode="normal" in="SourceGraphic" in2="BackgroundImageFix" result="shape"/>
<feColorMatrix in="SourceAlpha" type="matrix" values="0 0 0 0 0 0 0 0 0 0 0 0 0 0 0 0 0 0 127 0" result="hardAlpha"/>
<feOffset dy="4"/>
<feGaussianBlur stdDeviation="2"/>
<feComposite in2="hardAlpha" operator="arithmetic" k2="-1" k3="1"/>
<feColorMatrix type="matrix" values="0 0 0 0 0.85098 0 0 0 0 0.85098 0 0 0 0 0.85098 0 0 0 1 0"/>
<feBlend mode="normal" in2="shape" result="effect1_innerShadow_1891_5704"/>
</filter>
<filter id="filter4_i_1891_5704" x="0" y="487" width="858" height="361" filterUnits="userSpaceOnUse" color-interpolation-filters="sRGB">
<feFlood flood-opacity="0" result="BackgroundImageFix"/>
<feBlend mode="normal" in="SourceGraphic" in2="BackgroundImageFix" result="shape"/>
<feColorMatrix in="SourceAlpha" type="matrix" values="0 0 0 0 0 0 0 0 0 0 0 0 0 0 0 0 0 0 127 0" result="hardAlpha"/>
<feOffset dy="4"/>
<feGaussianBlur stdDeviation="2"/>
<feComposite in2="hardAlpha" operator="arithmetic" k2="-1" k3="1"/>
<feColorMatrix type="matrix" values="0 0 0 0 0.85098 0 0 0 0 0.85098 0 0 0 0 0.85098 0 0 0 1 0"/>
<feBlend mode="normal" in2="shape" result="effect1_innerShadow_1891_5704"/>
</filter>
<linearGradient id="paint0_linear_1891_5704" x1="287.193" y1="331.119" x2="657.265" y2="48.6787" gradientUnits="userSpaceOnUse">
<stop stop-color="#4769FE"/>
<stop offset="0.494792" stop-color="#DB77FD"/>
<stop offset="1" stop-color="#04E9FF"/>
</linearGradient>
<radialGradient id="paint1_radial_1891_5704" cx="0" cy="0" r="1" gradientUnits="userSpaceOnUse" gradientTransform="translate(647.181 72.5602) rotate(30.6925) scale(273.501 237.305)">
<stop stop-color="#04E9FF"/>
<stop offset="1" stop-color="#8357DD" stop-opacity="0"/>
</radialGradient>
<radialGradient id="paint2_radial_1891_5704" cx="0" cy="0" r="1" gradientUnits="userSpaceOnUse" gradientTransform="translate(309.105 342.617) rotate(58.0988) scale(279.693 245.864)">
<stop stop-color="white"/>
<stop offset="1" stop-color="#976DE2" stop-opacity="0"/>
</radialGradient>
<linearGradient id="paint3_linear_1891_5704" x1="338.173" y1="349.076" x2="1017.05" y2="45.4995" gradientUnits="userSpaceOnUse">
<stop stop-color="#4769FE"/>
<stop offset="1" stop-color="#AF5BCC"/>
</linearGradient>
<radialGradient id="paint4_radial_1891_5704" cx="0" cy="0" r="1" gradientUnits="userSpaceOnUse" gradientTransform="translate(719.997 371.443) rotate(-86.3582) scale(247.536 259.008)">
<stop stop-color="#04E9FF"/>
<stop offset="1" stop-color="white" stop-opacity="0"/>
</radialGradient>
<radialGradient id="paint5_radial_1891_5704" cx="0" cy="0" r="1" gradientUnits="userSpaceOnUse" gradientTransform="translate(466.655 192.851) rotate(85.9628) scale(405.601 341.145)">
<stop stop-color="white"/>
<stop offset="0.671369" stop-color="#976DE2" stop-opacity="0"/>
</radialGradient>
<radialGradient id="paint6_radial_1891_5704" cx="0" cy="0" r="1" gradientUnits="userSpaceOnUse" gradientTransform="translate(506.219 19.0584) rotate(18.4889) scale(140.575 288.26)">
<stop stop-color="white"/>
<stop offset="0.329017" stop-color="white" stop-opacity="0"/>
</radialGradient>
<radialGradient id="paint7_radial_1891_5704" cx="0" cy="0" r="1" gradientUnits="userSpaceOnUse" gradientTransform="translate(375 760.5) rotate(-90) scale(81.5 485.826)">
<stop stop-color="#4495FB"/>
<stop offset="1" stop-color="#E2E1F2" stop-opacity="0"/>
</radialGradient>
<linearGradient id="paint8_linear_1891_5704" x1="23" y1="715.5" x2="923.5" y2="647" gradientUnits="userSpaceOnUse">
<stop stop-color="#4769FE"/>
<stop offset="0.523584" stop-color="#DB77FD"/>
<stop offset="1" stop-color="#04E9FF"/>
</linearGradient>
<radialGradient id="paint9_radial_1891_5704" cx="0" cy="0" r="1" gradientUnits="userSpaceOnUse" gradientTransform="translate(975 651.5) rotate(174.919) scale(434.708 223.481)">
<stop offset="0.0596546" stop-color="#F88511"/>
<stop offset="1" stop-color="#AC9FE6" stop-opacity="0"/>
</radialGradient>
<radialGradient id="paint10_radial_1891_5704" cx="0" cy="0" r="1" gradientUnits="userSpaceOnUse" gradientTransform="translate(561.5 507.5) rotate(79.4792) scale(106.795 248.417)">
<stop stop-color="white"/>
<stop offset="0.0001" stop-color="white"/>
<stop offset="1" stop-color="white" stop-opacity="0"/>
</radialGradient>
<radialGradient id="paint11_radial_1891_5704" cx="0" cy="0" r="1" gradientUnits="userSpaceOnUse" gradientTransform="translate(352 797.5) rotate(-90) scale(81.5 485.826)">
<stop stop-color="#4769FE"/>
<stop offset="1" stop-color="#E2E1F2" stop-opacity="0"/>
</radialGradient>
<linearGradient id="paint12_linear_1891_5704" x1="4.73844e-07" y1="752.5" x2="900.5" y2="684" gradientUnits="userSpaceOnUse">
<stop stop-color="#4769FE"/>
<stop offset="0.661458" stop-color="#AF5BCC"/>
</linearGradient>
<radialGradient id="paint13_radial_1891_5704" cx="0" cy="0" r="1" gradientUnits="userSpaceOnUse" gradientTransform="translate(1013.5 666) rotate(172.968) scale(498.248 256.147)">
<stop offset="0.0596546" stop-color="#04E9FF"/>
<stop offset="1" stop-color="#AC9FE6" stop-opacity="0"/>
</radialGradient>
<radialGradient id="paint14_radial_1891_5704" cx="0" cy="0" r="1" gradientUnits="userSpaceOnUse" gradientTransform="translate(538.5 544.5) rotate(79.4792) scale(106.795 248.417)">
<stop stop-color="white"/>
<stop offset="0.0001" stop-color="white"/>
<stop offset="1" stop-color="white" stop-opacity="0"/>
</radialGradient>
<linearGradient id="paint15_linear_1891_5704" x1="256.5" y1="610.5" x2="260.5" y2="642" gradientUnits="userSpaceOnUse">
<stop stop-color="white"/>
<stop offset="0.498428" stop-color="white" stop-opacity="0"/>
</linearGradient>
</defs>
</svg>
