<svg width="371" height="455" viewBox="0 0 371 455" fill="none" xmlns="http://www.w3.org/2000/svg">
<g filter="url(#filter0_i_1563_6202)">
<path d="M217.968 314.41C312.63 265.663 295.603 213.015 295.603 213.015C295.603 213.015 338.095 44.764 265.327 15.9757C192.559 -12.8126 238.625 114.818 156.963 160.206C75.3005 205.594 79.8145 61.1083 4.06584 83.1691C-71.6829 105.23 -92.9366 209.689 -164 230.385C-235.063 251.081 -239.97 154.241 -276.282 164.816C-312.595 175.392 -347.445 231.712 -328.773 278.373C-310.1 325.034 -232.414 420.162 -144.011 403.736C-55.6088 387.309 -58.6121 291.188 4.02736 261.929C66.6668 232.67 123.306 363.158 217.968 314.41Z" fill="white"/>
<path d="M217.968 314.41C312.63 265.663 295.603 213.015 295.603 213.015C295.603 213.015 338.095 44.764 265.327 15.9757C192.559 -12.8126 238.625 114.818 156.963 160.206C75.3005 205.594 79.8145 61.1083 4.06584 83.1691C-71.6829 105.23 -92.9366 209.689 -164 230.385C-235.063 251.081 -239.97 154.241 -276.282 164.816C-312.595 175.392 -347.445 231.712 -328.773 278.373C-310.1 325.034 -232.414 420.162 -144.011 403.736C-55.6088 387.309 -58.6121 291.188 4.02736 261.929C66.6668 232.67 123.306 363.158 217.968 314.41Z" fill="url(#paint0_linear_1563_6202)"/>
<path d="M217.968 314.41C312.63 265.663 295.603 213.015 295.603 213.015C295.603 213.015 338.095 44.764 265.327 15.9757C192.559 -12.8126 238.625 114.818 156.963 160.206C75.3005 205.594 79.8145 61.1083 4.06584 83.1691C-71.6829 105.23 -92.9366 209.689 -164 230.385C-235.063 251.081 -239.97 154.241 -276.282 164.816C-312.595 175.392 -347.445 231.712 -328.773 278.373C-310.1 325.034 -232.414 420.162 -144.011 403.736C-55.6088 387.309 -58.6121 291.188 4.02736 261.929C66.6668 232.67 123.306 363.158 217.968 314.41Z" fill="url(#paint1_radial_1563_6202)" fill-opacity="0.5"/>
<path d="M217.968 314.41C312.63 265.663 295.603 213.015 295.603 213.015C295.603 213.015 338.095 44.764 265.327 15.9757C192.559 -12.8126 238.625 114.818 156.963 160.206C75.3005 205.594 79.8145 61.1083 4.06584 83.1691C-71.6829 105.23 -92.9366 209.689 -164 230.385C-235.063 251.081 -239.97 154.241 -276.282 164.816C-312.595 175.392 -347.445 231.712 -328.773 278.373C-310.1 325.034 -232.414 420.162 -144.011 403.736C-55.6088 387.309 -58.6121 291.188 4.02736 261.929C66.6668 232.67 123.306 363.158 217.968 314.41Z" fill="url(#paint2_radial_1563_6202)"/>
<path d="M217.968 314.41C312.63 265.663 295.603 213.015 295.603 213.015C295.603 213.015 338.095 44.764 265.327 15.9757C192.559 -12.8126 238.625 114.818 156.963 160.206C75.3005 205.594 79.8145 61.1083 4.06584 83.1691C-71.6829 105.23 -92.9366 209.689 -164 230.385C-235.063 251.081 -239.97 154.241 -276.282 164.816C-312.595 175.392 -347.445 231.712 -328.773 278.373C-310.1 325.034 -232.414 420.162 -144.011 403.736C-55.6088 387.309 -58.6121 291.188 4.02736 261.929C66.6668 232.67 123.306 363.158 217.968 314.41Z" fill="url(#paint3_radial_1563_6202)" fill-opacity="0.5"/>
</g>
<g filter="url(#filter1_i_1563_6202)">
<path d="M210.962 342.713C305.624 293.965 288.597 241.318 288.597 241.318C288.597 241.318 331.089 73.0667 258.321 44.2784C185.553 15.4901 231.619 143.12 149.957 188.509C68.2946 233.897 72.8087 89.4111 -2.94002 111.472C-78.6887 133.533 -99.9425 237.992 -171.006 258.688C-242.069 279.384 -246.975 182.544 -283.288 193.119C-319.601 203.695 -354.451 260.015 -335.778 306.676C-317.106 353.336 -239.42 448.465 -151.017 432.039C-62.6146 415.612 -65.6179 319.49 -2.97849 290.232C59.6609 260.973 116.301 391.461 210.962 342.713Z" fill="white"/>
<path d="M210.962 342.713C305.624 293.965 288.597 241.318 288.597 241.318C288.597 241.318 331.089 73.0667 258.321 44.2784C185.553 15.4901 231.619 143.12 149.957 188.509C68.2946 233.897 72.8087 89.4111 -2.94002 111.472C-78.6887 133.533 -99.9425 237.992 -171.006 258.688C-242.069 279.384 -246.975 182.544 -283.288 193.119C-319.601 203.695 -354.451 260.015 -335.778 306.676C-317.106 353.336 -239.42 448.465 -151.017 432.039C-62.6146 415.612 -65.6179 319.49 -2.97849 290.232C59.6609 260.973 116.301 391.461 210.962 342.713Z" fill="url(#paint4_linear_1563_6202)" fill-opacity="0.8"/>
<path d="M210.962 342.713C305.624 293.965 288.597 241.318 288.597 241.318C288.597 241.318 331.089 73.0667 258.321 44.2784C185.553 15.4901 231.619 143.12 149.957 188.509C68.2946 233.897 72.8087 89.4111 -2.94002 111.472C-78.6887 133.533 -99.9425 237.992 -171.006 258.688C-242.069 279.384 -246.975 182.544 -283.288 193.119C-319.601 203.695 -354.451 260.015 -335.778 306.676C-317.106 353.336 -239.42 448.465 -151.017 432.039C-62.6146 415.612 -65.6179 319.49 -2.97849 290.232C59.6609 260.973 116.301 391.461 210.962 342.713Z" fill="url(#paint5_linear_1563_6202)" fill-opacity="0.2"/>
<path d="M210.962 342.713C305.624 293.965 288.597 241.318 288.597 241.318C288.597 241.318 331.089 73.0667 258.321 44.2784C185.553 15.4901 231.619 143.12 149.957 188.509C68.2946 233.897 72.8087 89.4111 -2.94002 111.472C-78.6887 133.533 -99.9425 237.992 -171.006 258.688C-242.069 279.384 -246.975 182.544 -283.288 193.119C-319.601 203.695 -354.451 260.015 -335.778 306.676C-317.106 353.336 -239.42 448.465 -151.017 432.039C-62.6146 415.612 -65.6179 319.49 -2.97849 290.232C59.6609 260.973 116.301 391.461 210.962 342.713Z" fill="url(#paint6_radial_1563_6202)" fill-opacity="0.5"/>
<path d="M210.962 342.713C305.624 293.965 288.597 241.318 288.597 241.318C288.597 241.318 331.089 73.0667 258.321 44.2784C185.553 15.4901 231.619 143.12 149.957 188.509C68.2946 233.897 72.8087 89.4111 -2.94002 111.472C-78.6887 133.533 -99.9425 237.992 -171.006 258.688C-242.069 279.384 -246.975 182.544 -283.288 193.119C-319.601 203.695 -354.451 260.015 -335.778 306.676C-317.106 353.336 -239.42 448.465 -151.017 432.039C-62.6146 415.612 -65.6179 319.49 -2.97849 290.232C59.6609 260.973 116.301 391.461 210.962 342.713Z" fill="url(#paint7_radial_1563_6202)" fill-opacity="0.5"/>
<path d="M210.962 342.713C305.624 293.965 288.597 241.318 288.597 241.318C288.597 241.318 331.089 73.0667 258.321 44.2784C185.553 15.4901 231.619 143.12 149.957 188.509C68.2946 233.897 72.8087 89.4111 -2.94002 111.472C-78.6887 133.533 -99.9425 237.992 -171.006 258.688C-242.069 279.384 -246.975 182.544 -283.288 193.119C-319.601 203.695 -354.451 260.015 -335.778 306.676C-317.106 353.336 -239.42 448.465 -151.017 432.039C-62.6146 415.612 -65.6179 319.49 -2.97849 290.232C59.6609 260.973 116.301 391.461 210.962 342.713Z" fill="url(#paint8_radial_1563_6202)"/>
<path d="M210.962 342.713C305.624 293.965 288.597 241.318 288.597 241.318C288.597 241.318 331.089 73.0667 258.321 44.2784C185.553 15.4901 231.619 143.12 149.957 188.509C68.2946 233.897 72.8087 89.4111 -2.94002 111.472C-78.6887 133.533 -99.9425 237.992 -171.006 258.688C-242.069 279.384 -246.975 182.544 -283.288 193.119C-319.601 203.695 -354.451 260.015 -335.778 306.676C-317.106 353.336 -239.42 448.465 -151.017 432.039C-62.6146 415.612 -65.6179 319.49 -2.97849 290.232C59.6609 260.973 116.301 391.461 210.962 342.713Z" fill="url(#paint9_radial_1563_6202)" fill-opacity="0.5"/>
</g>
<g opacity="0.3" filter="url(#filter2_i_1563_6202)">
<path d="M210.962 342.713C305.624 293.965 288.597 241.318 288.597 241.318C288.597 241.318 331.089 73.0667 258.321 44.2784C185.553 15.4901 231.619 143.12 149.957 188.509C68.2946 233.897 72.8087 89.4111 -2.94002 111.472C-78.6887 133.533 -99.9425 237.992 -171.006 258.688C-242.069 279.384 -246.975 182.544 -283.288 193.119C-319.601 203.695 -354.451 260.015 -335.778 306.676C-317.106 353.336 -239.42 448.465 -151.017 432.039C-62.6146 415.612 -65.6179 319.49 -2.97849 290.232C59.6609 260.973 116.301 391.461 210.962 342.713Z" fill="url(#paint10_linear_1563_6202)" fill-opacity="0.1"/>
</g>
<defs>
<filter id="filter0_i_1563_6202" x="-333.977" y="11.793" width="641.912" height="398.826" filterUnits="userSpaceOnUse" color-interpolation-filters="sRGB">
<feFlood flood-opacity="0" result="BackgroundImageFix"/>
<feBlend mode="normal" in="SourceGraphic" in2="BackgroundImageFix" result="shape"/>
<feColorMatrix in="SourceAlpha" type="matrix" values="0 0 0 0 0 0 0 0 0 0 0 0 0 0 0 0 0 0 127 0" result="hardAlpha"/>
<feOffset dy="5"/>
<feGaussianBlur stdDeviation="5"/>
<feComposite in2="hardAlpha" operator="arithmetic" k2="-1" k3="1"/>
<feColorMatrix type="matrix" values="0 0 0 0 1 0 0 0 0 1 0 0 0 0 1 0 0 0 1 0"/>
<feBlend mode="normal" in2="shape" result="effect1_innerShadow_1563_6202"/>
</filter>
<filter id="filter1_i_1563_6202" x="-340.982" y="40.0957" width="641.912" height="398.826" filterUnits="userSpaceOnUse" color-interpolation-filters="sRGB">
<feFlood flood-opacity="0" result="BackgroundImageFix"/>
<feBlend mode="normal" in="SourceGraphic" in2="BackgroundImageFix" result="shape"/>
<feColorMatrix in="SourceAlpha" type="matrix" values="0 0 0 0 0 0 0 0 0 0 0 0 0 0 0 0 0 0 127 0" result="hardAlpha"/>
<feOffset dy="5"/>
<feGaussianBlur stdDeviation="5"/>
<feComposite in2="hardAlpha" operator="arithmetic" k2="-1" k3="1"/>
<feColorMatrix type="matrix" values="0 0 0 0 1 0 0 0 0 1 0 0 0 0 1 0 0 0 1 0"/>
<feBlend mode="normal" in2="shape" result="effect1_innerShadow_1563_6202"/>
</filter>
<filter id="filter2_i_1563_6202" x="-340.982" y="40.0957" width="641.912" height="398.826" filterUnits="userSpaceOnUse" color-interpolation-filters="sRGB">
<feFlood flood-opacity="0" result="BackgroundImageFix"/>
<feBlend mode="normal" in="SourceGraphic" in2="BackgroundImageFix" result="shape"/>
<feColorMatrix in="SourceAlpha" type="matrix" values="0 0 0 0 0 0 0 0 0 0 0 0 0 0 0 0 0 0 127 0" result="hardAlpha"/>
<feOffset dy="5"/>
<feGaussianBlur stdDeviation="5"/>
<feComposite in2="hardAlpha" operator="arithmetic" k2="-1" k3="1"/>
<feColorMatrix type="matrix" values="0 0 0 0 1 0 0 0 0 1 0 0 0 0 1 0 0 0 1 0"/>
<feBlend mode="normal" in2="shape" result="effect1_innerShadow_1563_6202"/>
</filter>
<linearGradient id="paint0_linear_1563_6202" x1="358.461" y1="256.947" x2="-346.834" y2="217.528" gradientUnits="userSpaceOnUse">
<stop stop-color="#4769FE"/>
<stop offset="1" stop-color="#AF5BCC"/>
</linearGradient>
<radialGradient id="paint1_radial_1563_6202" cx="0" cy="0" r="1" gradientUnits="userSpaceOnUse" gradientTransform="translate(-74.54 386.017) rotate(-165.448) scale(249.493 307.616)">
<stop stop-color="#04E9FF"/>
<stop offset="1" stop-color="#A78EE8" stop-opacity="0.22"/>
</radialGradient>
<radialGradient id="paint2_radial_1563_6202" cx="0" cy="0" r="1" gradientUnits="userSpaceOnUse" gradientTransform="translate(365.485 144.348) rotate(172.439) scale(253.414 356.823)">
<stop stop-color="#04E9FF"/>
<stop offset="0.555814" stop-color="#8C89F2" stop-opacity="0.03"/>
</radialGradient>
<radialGradient id="paint3_radial_1563_6202" cx="0" cy="0" r="1" gradientUnits="userSpaceOnUse" gradientTransform="translate(264.641 317.309) rotate(-151.743) scale(163.056 156.297)">
<stop stop-color="white"/>
<stop offset="1" stop-color="#9C95F1" stop-opacity="0.26"/>
</radialGradient>
<linearGradient id="paint4_linear_1563_6202" x1="351.456" y1="285.25" x2="-353.84" y2="245.831" gradientUnits="userSpaceOnUse">
<stop stop-color="#4769FE"/>
<stop offset="1" stop-color="#AF5BCC"/>
</linearGradient>
<linearGradient id="paint5_linear_1563_6202" x1="-338.525" y1="390.045" x2="-309.645" y2="335.041" gradientUnits="userSpaceOnUse">
<stop stop-color="white"/>
<stop offset="1" stop-color="white" stop-opacity="0"/>
</linearGradient>
<radialGradient id="paint6_radial_1563_6202" cx="0" cy="0" r="1" gradientUnits="userSpaceOnUse" gradientTransform="translate(11.9015 105.428) rotate(138.994) scale(266.938 114.411)">
<stop stop-color="white"/>
<stop offset="1" stop-color="#A696EE" stop-opacity="0.42"/>
</radialGradient>
<radialGradient id="paint7_radial_1563_6202" cx="0" cy="0" r="1" gradientUnits="userSpaceOnUse" gradientTransform="translate(-81.5459 414.32) rotate(-165.448) scale(249.493 307.616)">
<stop stop-color="#04E9FF"/>
<stop offset="1" stop-color="#A78EE8" stop-opacity="0.22"/>
</radialGradient>
<radialGradient id="paint8_radial_1563_6202" cx="0" cy="0" r="1" gradientUnits="userSpaceOnUse" gradientTransform="translate(358.479 172.651) rotate(172.439) scale(253.414 356.823)">
<stop stop-color="#04E9FF"/>
<stop offset="0.555814" stop-color="#8C89F2" stop-opacity="0.03"/>
</radialGradient>
<radialGradient id="paint9_radial_1563_6202" cx="0" cy="0" r="1" gradientUnits="userSpaceOnUse" gradientTransform="translate(257.635 345.612) rotate(-151.743) scale(163.056 156.297)">
<stop stop-color="white"/>
<stop offset="1" stop-color="#9C95F1" stop-opacity="0.26"/>
</radialGradient>
<linearGradient id="paint10_linear_1563_6202" x1="351.456" y1="285.25" x2="-353.84" y2="245.831" gradientUnits="userSpaceOnUse">
<stop stop-color="#4769FE"/>
<stop offset="1" stop-color="#AF5BCC"/>
</linearGradient>
</defs>
</svg>
