<svg width="533" height="489" viewBox="0 0 533 489" fill="none" xmlns="http://www.w3.org/2000/svg">
<g filter="url(#filter0_i_1563_6198)">
<path d="M588.968 314.41C683.63 265.663 666.603 213.015 666.603 213.015C666.603 213.015 709.095 44.764 636.327 15.9757C563.559 -12.8126 609.625 114.818 527.963 160.206C446.3 205.594 450.815 61.1083 375.066 83.1691C299.317 105.23 278.063 209.689 207 230.385C135.937 251.081 131.03 154.241 94.7179 164.816C58.4053 175.392 23.5553 231.712 42.2275 278.373C60.8996 325.034 138.586 420.162 226.989 403.736C315.391 387.309 312.388 291.188 375.027 261.929C437.667 232.67 494.306 363.158 588.968 314.41Z" fill="white"/>
<path d="M588.968 314.41C683.63 265.663 666.603 213.015 666.603 213.015C666.603 213.015 709.095 44.764 636.327 15.9757C563.559 -12.8126 609.625 114.818 527.963 160.206C446.3 205.594 450.815 61.1083 375.066 83.1691C299.317 105.23 278.063 209.689 207 230.385C135.937 251.081 131.03 154.241 94.7179 164.816C58.4053 175.392 23.5553 231.712 42.2275 278.373C60.8996 325.034 138.586 420.162 226.989 403.736C315.391 387.309 312.388 291.188 375.027 261.929C437.667 232.67 494.306 363.158 588.968 314.41Z" fill="url(#paint0_linear_1563_6198)"/>
<path d="M588.968 314.41C683.63 265.663 666.603 213.015 666.603 213.015C666.603 213.015 709.095 44.764 636.327 15.9757C563.559 -12.8126 609.625 114.818 527.963 160.206C446.3 205.594 450.815 61.1083 375.066 83.1691C299.317 105.23 278.063 209.689 207 230.385C135.937 251.081 131.03 154.241 94.7179 164.816C58.4053 175.392 23.5553 231.712 42.2275 278.373C60.8996 325.034 138.586 420.162 226.989 403.736C315.391 387.309 312.388 291.188 375.027 261.929C437.667 232.67 494.306 363.158 588.968 314.41Z" fill="url(#paint1_radial_1563_6198)" fill-opacity="0.5"/>
<path d="M588.968 314.41C683.63 265.663 666.603 213.015 666.603 213.015C666.603 213.015 709.095 44.764 636.327 15.9757C563.559 -12.8126 609.625 114.818 527.963 160.206C446.3 205.594 450.815 61.1083 375.066 83.1691C299.317 105.23 278.063 209.689 207 230.385C135.937 251.081 131.03 154.241 94.7179 164.816C58.4053 175.392 23.5553 231.712 42.2275 278.373C60.8996 325.034 138.586 420.162 226.989 403.736C315.391 387.309 312.388 291.188 375.027 261.929C437.667 232.67 494.306 363.158 588.968 314.41Z" fill="url(#paint2_radial_1563_6198)"/>
<path d="M588.968 314.41C683.63 265.663 666.603 213.015 666.603 213.015C666.603 213.015 709.095 44.764 636.327 15.9757C563.559 -12.8126 609.625 114.818 527.963 160.206C446.3 205.594 450.815 61.1083 375.066 83.1691C299.317 105.23 278.063 209.689 207 230.385C135.937 251.081 131.03 154.241 94.7179 164.816C58.4053 175.392 23.5553 231.712 42.2275 278.373C60.8996 325.034 138.586 420.162 226.989 403.736C315.391 387.309 312.388 291.188 375.027 261.929C437.667 232.67 494.306 363.158 588.968 314.41Z" fill="url(#paint3_radial_1563_6198)" fill-opacity="0.5"/>
</g>
<g filter="url(#filter1_i_1563_6198)">
<path d="M581.962 342.713C676.624 293.965 659.597 241.318 659.597 241.318C659.597 241.318 702.089 73.0667 629.321 44.2784C556.553 15.4901 602.619 143.12 520.957 188.509C439.295 233.897 443.809 89.4111 368.06 111.472C292.311 133.533 271.057 237.992 199.994 258.688C128.931 279.384 124.025 182.544 87.712 193.119C51.3995 203.695 16.5495 260.015 35.2216 306.676C53.8937 353.336 131.58 448.465 219.983 432.039C308.385 415.612 305.382 319.49 368.022 290.232C430.661 260.973 487.301 391.461 581.962 342.713Z" fill="white"/>
<path d="M581.962 342.713C676.624 293.965 659.597 241.318 659.597 241.318C659.597 241.318 702.089 73.0667 629.321 44.2784C556.553 15.4901 602.619 143.12 520.957 188.509C439.295 233.897 443.809 89.4111 368.06 111.472C292.311 133.533 271.057 237.992 199.994 258.688C128.931 279.384 124.025 182.544 87.712 193.119C51.3995 203.695 16.5495 260.015 35.2216 306.676C53.8937 353.336 131.58 448.465 219.983 432.039C308.385 415.612 305.382 319.49 368.022 290.232C430.661 260.973 487.301 391.461 581.962 342.713Z" fill="url(#paint4_linear_1563_6198)" fill-opacity="0.8"/>
<path d="M581.962 342.713C676.624 293.965 659.597 241.318 659.597 241.318C659.597 241.318 702.089 73.0667 629.321 44.2784C556.553 15.4901 602.619 143.12 520.957 188.509C439.295 233.897 443.809 89.4111 368.06 111.472C292.311 133.533 271.057 237.992 199.994 258.688C128.931 279.384 124.025 182.544 87.712 193.119C51.3995 203.695 16.5495 260.015 35.2216 306.676C53.8937 353.336 131.58 448.465 219.983 432.039C308.385 415.612 305.382 319.49 368.022 290.232C430.661 260.973 487.301 391.461 581.962 342.713Z" fill="url(#paint5_linear_1563_6198)" fill-opacity="0.2"/>
<path d="M581.962 342.713C676.624 293.965 659.597 241.318 659.597 241.318C659.597 241.318 702.089 73.0667 629.321 44.2784C556.553 15.4901 602.619 143.12 520.957 188.509C439.295 233.897 443.809 89.4111 368.06 111.472C292.311 133.533 271.057 237.992 199.994 258.688C128.931 279.384 124.025 182.544 87.712 193.119C51.3995 203.695 16.5495 260.015 35.2216 306.676C53.8937 353.336 131.58 448.465 219.983 432.039C308.385 415.612 305.382 319.49 368.022 290.232C430.661 260.973 487.301 391.461 581.962 342.713Z" fill="url(#paint6_radial_1563_6198)" fill-opacity="0.5"/>
<path d="M581.962 342.713C676.624 293.965 659.597 241.318 659.597 241.318C659.597 241.318 702.089 73.0667 629.321 44.2784C556.553 15.4901 602.619 143.12 520.957 188.509C439.295 233.897 443.809 89.4111 368.06 111.472C292.311 133.533 271.057 237.992 199.994 258.688C128.931 279.384 124.025 182.544 87.712 193.119C51.3995 203.695 16.5495 260.015 35.2216 306.676C53.8937 353.336 131.58 448.465 219.983 432.039C308.385 415.612 305.382 319.49 368.022 290.232C430.661 260.973 487.301 391.461 581.962 342.713Z" fill="url(#paint7_radial_1563_6198)" fill-opacity="0.5"/>
<path d="M581.962 342.713C676.624 293.965 659.597 241.318 659.597 241.318C659.597 241.318 702.089 73.0667 629.321 44.2784C556.553 15.4901 602.619 143.12 520.957 188.509C439.295 233.897 443.809 89.4111 368.06 111.472C292.311 133.533 271.057 237.992 199.994 258.688C128.931 279.384 124.025 182.544 87.712 193.119C51.3995 203.695 16.5495 260.015 35.2216 306.676C53.8937 353.336 131.58 448.465 219.983 432.039C308.385 415.612 305.382 319.49 368.022 290.232C430.661 260.973 487.301 391.461 581.962 342.713Z" fill="url(#paint8_radial_1563_6198)"/>
<path d="M581.962 342.713C676.624 293.965 659.597 241.318 659.597 241.318C659.597 241.318 702.089 73.0667 629.321 44.2784C556.553 15.4901 602.619 143.12 520.957 188.509C439.295 233.897 443.809 89.4111 368.06 111.472C292.311 133.533 271.057 237.992 199.994 258.688C128.931 279.384 124.025 182.544 87.712 193.119C51.3995 203.695 16.5495 260.015 35.2216 306.676C53.8937 353.336 131.58 448.465 219.983 432.039C308.385 415.612 305.382 319.49 368.022 290.232C430.661 260.973 487.301 391.461 581.962 342.713Z" fill="url(#paint9_radial_1563_6198)" fill-opacity="0.5"/>
</g>
<g opacity="0.3" filter="url(#filter2_i_1563_6198)">
<path d="M581.962 342.713C676.624 293.965 659.597 241.318 659.597 241.318C659.597 241.318 702.089 73.0667 629.321 44.2784C556.553 15.4901 602.619 143.12 520.957 188.509C439.295 233.897 443.809 89.4111 368.06 111.472C292.311 133.533 271.057 237.992 199.994 258.688C128.931 279.384 124.025 182.544 87.712 193.119C51.3995 203.695 16.5495 260.015 35.2216 306.676C53.8937 353.336 131.58 448.465 219.983 432.039C308.385 415.612 305.382 319.49 368.022 290.232C430.661 260.973 487.301 391.461 581.962 342.713Z" fill="url(#paint10_linear_1563_6198)" fill-opacity="0.1"/>
</g>
<defs>
<filter id="filter0_i_1563_6198" x="37.0234" y="11.793" width="641.912" height="398.826" filterUnits="userSpaceOnUse" color-interpolation-filters="sRGB">
<feFlood flood-opacity="0" result="BackgroundImageFix"/>
<feBlend mode="normal" in="SourceGraphic" in2="BackgroundImageFix" result="shape"/>
<feColorMatrix in="SourceAlpha" type="matrix" values="0 0 0 0 0 0 0 0 0 0 0 0 0 0 0 0 0 0 127 0" result="hardAlpha"/>
<feOffset dy="5"/>
<feGaussianBlur stdDeviation="5"/>
<feComposite in2="hardAlpha" operator="arithmetic" k2="-1" k3="1"/>
<feColorMatrix type="matrix" values="0 0 0 0 1 0 0 0 0 1 0 0 0 0 1 0 0 0 1 0"/>
<feBlend mode="normal" in2="shape" result="effect1_innerShadow_1563_6198"/>
</filter>
<filter id="filter1_i_1563_6198" x="30.0176" y="40.0957" width="641.912" height="398.826" filterUnits="userSpaceOnUse" color-interpolation-filters="sRGB">
<feFlood flood-opacity="0" result="BackgroundImageFix"/>
<feBlend mode="normal" in="SourceGraphic" in2="BackgroundImageFix" result="shape"/>
<feColorMatrix in="SourceAlpha" type="matrix" values="0 0 0 0 0 0 0 0 0 0 0 0 0 0 0 0 0 0 127 0" result="hardAlpha"/>
<feOffset dy="5"/>
<feGaussianBlur stdDeviation="5"/>
<feComposite in2="hardAlpha" operator="arithmetic" k2="-1" k3="1"/>
<feColorMatrix type="matrix" values="0 0 0 0 1 0 0 0 0 1 0 0 0 0 1 0 0 0 1 0"/>
<feBlend mode="normal" in2="shape" result="effect1_innerShadow_1563_6198"/>
</filter>
<filter id="filter2_i_1563_6198" x="30.0176" y="40.0957" width="641.912" height="398.826" filterUnits="userSpaceOnUse" color-interpolation-filters="sRGB">
<feFlood flood-opacity="0" result="BackgroundImageFix"/>
<feBlend mode="normal" in="SourceGraphic" in2="BackgroundImageFix" result="shape"/>
<feColorMatrix in="SourceAlpha" type="matrix" values="0 0 0 0 0 0 0 0 0 0 0 0 0 0 0 0 0 0 127 0" result="hardAlpha"/>
<feOffset dy="5"/>
<feGaussianBlur stdDeviation="5"/>
<feComposite in2="hardAlpha" operator="arithmetic" k2="-1" k3="1"/>
<feColorMatrix type="matrix" values="0 0 0 0 1 0 0 0 0 1 0 0 0 0 1 0 0 0 1 0"/>
<feBlend mode="normal" in2="shape" result="effect1_innerShadow_1563_6198"/>
</filter>
<linearGradient id="paint0_linear_1563_6198" x1="729.461" y1="256.947" x2="24.1661" y2="217.528" gradientUnits="userSpaceOnUse">
<stop stop-color="#4769FE"/>
<stop offset="1" stop-color="#AF5BCC"/>
</linearGradient>
<radialGradient id="paint1_radial_1563_6198" cx="0" cy="0" r="1" gradientUnits="userSpaceOnUse" gradientTransform="translate(296.46 386.017) rotate(-165.448) scale(249.493 307.616)">
<stop stop-color="#04E9FF"/>
<stop offset="1" stop-color="#A78EE8" stop-opacity="0.22"/>
</radialGradient>
<radialGradient id="paint2_radial_1563_6198" cx="0" cy="0" r="1" gradientUnits="userSpaceOnUse" gradientTransform="translate(736.485 144.348) rotate(172.439) scale(253.414 356.823)">
<stop stop-color="#04E9FF"/>
<stop offset="0.555814" stop-color="#8C89F2" stop-opacity="0.03"/>
</radialGradient>
<radialGradient id="paint3_radial_1563_6198" cx="0" cy="0" r="1" gradientUnits="userSpaceOnUse" gradientTransform="translate(635.641 317.309) rotate(-151.743) scale(163.056 156.297)">
<stop stop-color="white"/>
<stop offset="1" stop-color="#9C95F1" stop-opacity="0.26"/>
</radialGradient>
<linearGradient id="paint4_linear_1563_6198" x1="722.456" y1="285.25" x2="17.1602" y2="245.831" gradientUnits="userSpaceOnUse">
<stop stop-color="#4769FE"/>
<stop offset="1" stop-color="#AF5BCC"/>
</linearGradient>
<linearGradient id="paint5_linear_1563_6198" x1="32.4754" y1="390.045" x2="61.3551" y2="335.041" gradientUnits="userSpaceOnUse">
<stop stop-color="white"/>
<stop offset="1" stop-color="white" stop-opacity="0"/>
</linearGradient>
<radialGradient id="paint6_radial_1563_6198" cx="0" cy="0" r="1" gradientUnits="userSpaceOnUse" gradientTransform="translate(382.901 105.428) rotate(138.994) scale(266.938 114.411)">
<stop stop-color="white"/>
<stop offset="1" stop-color="#A696EE" stop-opacity="0.42"/>
</radialGradient>
<radialGradient id="paint7_radial_1563_6198" cx="0" cy="0" r="1" gradientUnits="userSpaceOnUse" gradientTransform="translate(289.454 414.32) rotate(-165.448) scale(249.493 307.616)">
<stop stop-color="#04E9FF"/>
<stop offset="1" stop-color="#A78EE8" stop-opacity="0.22"/>
</radialGradient>
<radialGradient id="paint8_radial_1563_6198" cx="0" cy="0" r="1" gradientUnits="userSpaceOnUse" gradientTransform="translate(729.479 172.651) rotate(172.439) scale(253.414 356.823)">
<stop stop-color="#04E9FF"/>
<stop offset="0.555814" stop-color="#8C89F2" stop-opacity="0.03"/>
</radialGradient>
<radialGradient id="paint9_radial_1563_6198" cx="0" cy="0" r="1" gradientUnits="userSpaceOnUse" gradientTransform="translate(628.635 345.612) rotate(-151.743) scale(163.056 156.297)">
<stop stop-color="white"/>
<stop offset="1" stop-color="#9C95F1" stop-opacity="0.26"/>
</radialGradient>
<linearGradient id="paint10_linear_1563_6198" x1="722.456" y1="285.25" x2="17.1602" y2="245.831" gradientUnits="userSpaceOnUse">
<stop stop-color="#4769FE"/>
<stop offset="1" stop-color="#AF5BCC"/>
</linearGradient>
</defs>
</svg>
